<svg width="14" height="22" viewBox="0 0 14 22" fill="none" xmlns="http://www.w3.org/2000/svg">
<path d="M0.673032 1.24254C0.673032 1.0118 0.764594 0.790529 0.927621 0.627373C1.09065 0.464216 1.31177 0.372559 1.54232 0.372559C1.77288 0.372559 1.994 0.464216 2.15702 0.627373C2.32005 0.790529 2.41161 1.0118 2.41161 1.24254V19.8201H12.9812C13.2161 19.8313 13.4384 19.9298 13.6046 20.0962C13.7709 20.2626 13.8693 20.485 13.8805 20.72C13.8688 20.9521 13.7694 21.1711 13.6024 21.3326C13.4355 21.4942 13.2134 21.5862 12.9812 21.59H2.4461C2.2106 21.6 1.97561 21.561 1.75597 21.4753C1.53634 21.3897 1.33686 21.2593 1.17018 21.0925C1.0035 20.9257 0.873237 20.726 0.787656 20.5062C0.702075 20.2864 0.663069 20.0512 0.673032 19.8155V1.24254Z" fill="#5C5D5D"/>
</svg>
