<svg width="26" height="22" viewBox="0 0 26 22" fill="none" xmlns="http://www.w3.org/2000/svg">
<path d="M0.0640696 1.44352C0.0204244 1.30948 0.00999454 1.16685 0.0336524 1.02787C0.0573102 0.888899 0.114364 0.75775 0.199895 0.645734C0.285427 0.533717 0.396875 0.444181 0.524651 0.384831C0.652427 0.325481 0.792689 0.298106 0.933385 0.305043C1.03478 0.294534 1.13725 0.304537 1.2347 0.334477C1.33214 0.364418 1.42258 0.413675 1.50061 0.479314C1.57864 0.544952 1.64269 0.625631 1.68892 0.71655C1.73516 0.807468 1.76262 0.906767 1.76972 1.00853L6.01737 20.0885C6.01737 20.3225 6.2512 20.2565 6.31715 20.0885L11.1328 1.88003C11.1994 1.44651 11.4244 1.05315 11.7641 0.776059C12.1038 0.498966 12.5342 0.357846 12.9719 0.380025C13.4081 0.364134 13.8352 0.507559 14.1736 0.783544C14.5119 1.05953 14.7385 1.44923 14.8109 1.88003L19.5262 20.123C19.5936 20.291 19.826 20.357 19.826 20.123L24.1411 1.07303C24.1594 0.857548 24.2599 0.657407 24.4218 0.514127C24.5837 0.370847 24.7944 0.295428 25.0104 0.303532C25.1523 0.288748 25.2957 0.311378 25.4262 0.369176C25.5567 0.426974 25.6699 0.517922 25.7544 0.633008C25.8389 0.748093 25.8919 0.883325 25.9081 1.02524C25.9243 1.16716 25.9032 1.31084 25.8467 1.44204L21.5001 20.4545C21.4067 20.864 21.1772 21.2296 20.8491 21.4914C20.521 21.7533 20.1137 21.8959 19.6941 21.8959C19.2744 21.8959 18.8672 21.7533 18.539 21.4914C18.2109 21.2296 17.9814 20.864 17.888 20.4545L13.0723 2.21154C13.0723 2.17176 13.0565 2.1336 13.0284 2.10547C13.0003 2.07734 12.9622 2.06153 12.9224 2.06153C12.8827 2.06153 12.8446 2.07734 12.8164 2.10547C12.7883 2.1336 12.7725 2.17176 12.7725 2.21154L7.8894 20.4545C7.796 20.864 7.56644 21.2296 7.23833 21.4914C6.91022 21.7533 6.50299 21.8959 6.08332 21.8959C5.66366 21.8959 5.25643 21.7533 4.92831 21.4914C4.6002 21.2296 4.37065 20.864 4.27725 20.4545L0.0640696 1.44352Z" fill="#5C5D5D"/>
</svg>
