<svg width="16" height="22" viewBox="0 0 16 22" fill="none" xmlns="http://www.w3.org/2000/svg">
<path d="M14.893 21.7611C14.7595 21.7553 14.6284 21.7227 14.5076 21.6652C14.3869 21.6078 14.2789 21.5266 14.1901 21.4266L8.23679 13.9626C8.06474 13.6633 7.81591 13.4156 7.51601 13.2449C7.21612 13.0743 6.87607 12.987 6.53113 12.9921H2.31649V20.8581C2.30719 21.0887 2.21346 21.3079 2.05316 21.4738C1.89286 21.6398 1.67715 21.741 1.44715 21.7581C1.21523 21.7463 0.996442 21.6468 0.835049 21.4797C0.673657 21.3127 0.581735 21.0904 0.577852 20.8581V2.21307C0.567859 1.98177 0.606027 1.75094 0.689961 1.53521C0.773895 1.31948 0.901754 1.12357 1.0654 0.95994C1.22904 0.796308 1.4249 0.668525 1.64054 0.584711C1.85617 0.500897 2.08685 0.462885 2.31795 0.473085H8.43914C10.1903 0.386695 11.9062 0.987246 13.2219 2.14708C13.8457 2.74334 14.333 3.4677 14.6505 4.2704C14.968 5.07309 15.108 5.93507 15.0609 6.79707C15.0609 10.3116 12.9865 12.2871 9.51527 12.7551L15.602 20.3196C15.7222 20.4838 15.7816 20.6848 15.7698 20.8881C15.7739 21.0042 15.7539 21.1199 15.7112 21.2279C15.6685 21.3359 15.604 21.434 15.5217 21.5159C15.4394 21.5979 15.3411 21.6619 15.2329 21.7041C15.1247 21.7463 15.009 21.7657 14.893 21.7611ZM2.35093 11.2176H7.97003C11.5492 11.2176 13.3208 9.74457 13.3208 6.73257C13.3208 3.95457 11.6151 2.21307 8.40465 2.21307H2.35093V11.2176Z" fill="#5C5D5D"/>
</svg>
