<svg width="17" height="22" viewBox="0 0 17 22" fill="none" xmlns="http://www.w3.org/2000/svg">
<path d="M2.03514 21.626C1.80934 21.6386 1.58346 21.6028 1.37259 21.521C1.16172 21.4392 0.970706 21.3133 0.812363 21.1517C0.65402 20.9902 0.531993 20.7966 0.454401 20.584C0.376809 20.3714 0.345471 20.1447 0.362463 19.919V2.14551C0.345471 1.91983 0.376809 1.69311 0.454401 1.48052C0.531993 1.26793 0.65402 1.07437 0.812363 0.91278C0.970706 0.751188 1.16172 0.62529 1.37259 0.543502C1.58346 0.461714 1.80934 0.425917 2.03514 0.438514H7.25702C8.48334 0.357029 9.71305 0.535491 10.8657 0.962241C12.0184 1.38899 13.0681 2.05442 13.9462 2.91502C15.5945 4.67549 16.5147 6.99592 16.5212 9.40851C16.588 10.512 16.588 11.6185 16.5212 12.722C16.4845 15.1277 15.553 17.4333 13.9087 19.1885C13.027 20.0323 11.9807 20.6848 10.8354 21.1053C9.69002 21.5257 8.47027 21.7051 7.25249 21.632H2.03514V21.626ZM14.7751 9.34101C14.5083 4.85601 12.0652 2.21152 7.21654 2.21152H2.13256V19.8185H7.21654C12.0667 19.8185 14.5412 17.141 14.7751 12.689C14.843 11.5746 14.844 10.4571 14.778 9.34252L14.7751 9.34101Z" fill="#5C5D5D"/>
</svg>
