<svg width="18" height="22" viewBox="0 0 18 22" fill="none" xmlns="http://www.w3.org/2000/svg">
<path d="M17.6057 14.498C17.61 15.4726 17.4165 16.4379 17.037 17.3354C16.6575 18.2329 16.0999 19.044 15.398 19.7195C14.6442 20.4663 13.7437 21.0483 12.7535 21.4286C11.7633 21.8089 10.7049 21.9794 9.6455 21.929C8.53469 21.9521 7.43038 21.7539 6.39678 21.346C5.36318 20.9381 4.42091 20.3286 3.62476 19.553C1.99746 17.9564 1.03008 15.8053 0.914901 13.5275C0.781133 11.8903 0.781133 10.2448 0.914901 8.60753C1.03082 6.34954 1.99943 4.21991 3.62476 2.64953C4.41633 1.86532 5.35701 1.24793 6.39115 0.833896C7.42529 0.419862 8.53189 0.217574 9.6455 0.239009C11.251 0.195004 12.8323 0.638268 14.1813 1.51052C15.5304 2.38277 16.5842 3.64318 17.204 5.12603C17.2556 5.26307 17.2735 5.41046 17.2564 5.55587C17.2393 5.70128 17.1877 5.84047 17.1058 5.96179C17.0239 6.08312 16.9141 6.18305 16.7857 6.2532C16.6573 6.32336 16.514 6.36169 16.3677 6.36501C16.1849 6.37716 16.0033 6.32783 15.8518 6.22482C15.7002 6.12181 15.5875 5.97104 15.5314 5.79652C15.0303 4.65659 14.2045 3.68979 13.1574 3.01695C12.1103 2.34411 10.8882 1.99507 9.644 2.01351C8.7784 2.00046 7.91882 2.15949 7.11507 2.48134C6.31132 2.8032 5.57939 3.28149 4.9617 3.88851C3.6582 5.11348 2.86893 6.78871 2.75395 8.57453C2.58675 10.2438 2.58675 11.9257 2.75395 13.595C2.87113 15.3827 3.6453 17.0636 4.92724 18.314C5.55144 18.9214 6.2892 19.3997 7.09831 19.7214C7.90741 20.0432 8.77197 20.2021 9.64251 20.189C11.2601 20.2597 12.846 19.725 14.091 18.689C14.6589 18.2039 15.1102 17.5969 15.4112 16.9131C15.7122 16.2293 15.8553 15.4863 15.8296 14.7395V12.389H10.8131C10.5825 12.389 10.3614 12.2974 10.1984 12.1342C10.0354 11.9711 9.94378 11.7498 9.94378 11.519C9.94378 11.2883 10.0354 11.067 10.1984 10.9038C10.3614 10.7407 10.5825 10.649 10.8131 10.649H15.93C16.1492 10.628 16.3702 10.6545 16.5782 10.7268C16.7861 10.7992 16.9759 10.9156 17.1348 11.0681C17.2936 11.2207 17.4176 11.4057 17.4984 11.6106C17.5791 11.8156 17.6147 12.0355 17.6027 12.2555L17.6057 14.498Z" fill="#27A365"/>
</svg>
