<svg width="3" height="4" viewBox="0 0 3 4" fill="none" xmlns="http://www.w3.org/2000/svg">
<path d="M2.16028 2.8911C2.16912 3.02677 2.14951 3.16276 2.10271 3.2904C2.05591 3.41804 1.98296 3.53446 1.88853 3.63221C1.79411 3.72996 1.68031 3.80691 1.55442 3.85803C1.42854 3.90915 1.29335 3.93334 1.15756 3.92907C1.02335 3.92772 0.890738 3.8997 0.76744 3.84663C0.644142 3.79356 0.532612 3.71647 0.439322 3.6199C0.346032 3.52333 0.272857 3.4092 0.224023 3.28408C0.175188 3.15897 0.15168 3.02538 0.154864 2.8911V1.25157C0.054443 -0.0879262 2.22921 -0.0879262 2.16176 1.25157L2.16028 2.8911Z" fill="#27A365"/>
</svg>
