<svg width="19" height="22" viewBox="0 0 19 22" fill="none" xmlns="http://www.w3.org/2000/svg">
<path d="M17.689 21.6215C17.5054 21.6381 17.3218 21.5905 17.1693 21.4869C17.0168 21.3833 16.9049 21.2299 16.8527 21.053L14.3047 14.1245H4.18168L1.70713 21.053C1.64714 21.2251 1.53344 21.3732 1.38283 21.4756C1.23222 21.578 1.0527 21.6291 0.870795 21.6215C0.724565 21.6204 0.580909 21.5829 0.452689 21.5125C0.324469 21.4422 0.215689 21.3411 0.136087 21.2183C0.0564849 21.0955 0.00854682 20.9549 -0.00343509 20.8091C-0.015417 20.6632 0.00893169 20.5167 0.0674301 20.3825L6.62325 2.27303C6.75925 1.67424 7.09515 1.13972 7.57553 0.757677C8.05591 0.375633 8.65207 0.168881 9.26566 0.171534C9.87821 0.172795 10.4731 0.377237 10.9571 0.752871C11.4412 1.1285 11.7872 1.65414 11.941 2.24754L18.5358 20.39C18.5707 20.4868 18.5933 20.5876 18.6033 20.69C18.5981 20.9326 18.5006 21.1641 18.3307 21.3372C18.1608 21.5103 17.9313 21.612 17.689 21.6215ZM4.84565 12.35H13.6422L10.1634 2.60903C10.1236 2.39742 10.0127 2.20579 9.84916 2.06585C9.68562 1.92591 9.47923 1.84606 9.26416 1.83953C8.86448 1.83953 8.56471 2.10755 8.36487 2.64355L4.84565 12.35Z" fill="#27A365"/>
</svg>
